HIERARCHY
ROOT hip
{
  OFFSET 0 0 0
  CHANNELS 6 Xposition Yposition Zposition Zrotation Yrotation Xrotation
  JOINT abdomen
  {
    OFFSET 0 20.6881 -0.73152
    CHANNELS 3 Zrotation Xrotation Yrotation
    JOINT chest
    {
      OFFSET 0 11.7043 -0.48768
      CHANNELS 3 Zrotation Xrotation Yrotation
      JOINT neck
      {
        OFFSET 0 22.1894 -2.19456
        CHANNELS 3 Zrotation Xrotation Yrotation
        JOINT head
        {
          OFFSET -0.24384 7.07133 1.2192
          CHANNELS 3 Zrotation Xrotation Yrotation
          JOINT leftEye
          {
            OFFSET 4.14528 8.04674 8.04672
            CHANNELS 3 Zrotation Xrotation Yrotation
            End Site
            {
              OFFSET 1 0 0
            }
          }
          JOINT rightEye
          {
            OFFSET -3.6576 8.04674 8.04672
            CHANNELS 3 Zrotation Xrotation Yrotation
            End Site
            {
              OFFSET 1 0 0
            }
          }
        }
      }
      JOINT rCollar
      {
        OFFSET -2.68224 19.2634 -4.8768
        CHANNELS 3 Zrotation Xrotation Yrotation
        JOINT rShldr
        {
          OFFSET -8.77824 -1.95073 1.46304
          CHANNELS 3 Zrotation Xrotation Yrotation
          JOINT rForeArm
          {
            OFFSET -28.1742 -1.7115 0.48768
            CHANNELS 3 Zrotation Xrotation Yrotation
            JOINT rHand
            {
              OFFSET -22.5879 0.773209 7.07136
              CHANNELS 3 Zrotation Xrotation Yrotation
              JOINT rThumb1
              {
                OFFSET -1.2192 -0.487915 3.41376
                CHANNELS 3 Zrotation Xrotation Yrotation
                JOINT rThumb2
                {
                  OFFSET -3.37035 -0.52449 3.41376
                  CHANNELS 3 Zrotation Xrotation Yrotation
                  End Site
                  {
                    OFFSET -1.78271 -1.18214 1.43049
                  }
                }
              }
              JOINT rIndex1
              {
                OFFSET -7.75947 0.938293 5.60832
                CHANNELS 3 Zrotation Xrotation Yrotation
                JOINT rIndex2
                {
                  OFFSET -2.54057 -0.884171 1.56538
                  CHANNELS 3 Zrotation Xrotation Yrotation
                  End Site
                  {
                    OFFSET -1.62519 -0.234802 1.16502
                  }
                }
              }
              JOINT rMid1
              {
                OFFSET -8.24714 1.18213 3.41376
                CHANNELS 3 Zrotation Xrotation Yrotation
                JOINT rMid2
                {
                  OFFSET -3.10165 -0.590103 1.0647
                  CHANNELS 3 Zrotation Xrotation Yrotation
                  End Site
                  {
                    OFFSET -2.48547 -0.328903 0.83742
                  }
                }
              }
              JOINT rRing1
              {
                OFFSET -8.82822 0.546677 1.51678
                CHANNELS 3 Zrotation Xrotation Yrotation
                JOINT rRing2
                {
                  OFFSET -2.60934 -0.819778 -0.0198488
                  CHANNELS 3 Zrotation Xrotation Yrotation
                  End Site
                  {
                    OFFSET -2.33842 -0.294052 0.168128
                  }
                }
              }
              JOINT rPinky1
              {
                OFFSET -8.27202 -0.0477905 -0.4584
                CHANNELS 3 Zrotation Xrotation Yrotation
                JOINT rPinky2
                {
                  OFFSET -1.82734 -0.647385 -0.700984
                  CHANNELS 3 Zrotation Xrotation Yrotation
                  End Site
                  {
                    OFFSET -1.69225 -0.51767 -0.607171
                  }
                }
              }
            }
          }
        }
      }
      JOINT lCollar
      {
        OFFSET 2.68224 19.2634 -4.8768
        CHANNELS 3 Zrotation Xrotation Yrotation
        JOINT lShldr
        {
          OFFSET 8.77824 -1.95073 1.46304
          CHANNELS 3 Zrotation Xrotation Yrotation
          JOINT lForeArm
          {
            OFFSET 28.1742 -1.7115 0.48768
            CHANNELS 3 Zrotation Xrotation Yrotation
            JOINT lHand
            {
              OFFSET 22.5879 0.773209 7.07136
              CHANNELS 3 Zrotation Xrotation Yrotation
              JOINT lThumb1
              {
                OFFSET 1.2192 -0.487915 3.41376
                CHANNELS 3 Zrotation Xrotation Yrotation
                JOINT lThumb2
                {
                  OFFSET 3.37035 -0.52449 3.41376
                  CHANNELS 3 Zrotation Xrotation Yrotation
                  End Site
                  {
                    OFFSET 1.78271 -1.18214 1.43049
                  }
                }
              }
              JOINT lIndex1
              {
                OFFSET 7.75947 0.938293 5.60832
                CHANNELS 3 Zrotation Xrotation Yrotation
                JOINT lIndex2
                {
                  OFFSET 2.54057 -0.884171 1.56538
                  CHANNELS 3 Zrotation Xrotation Yrotation
                  End Site
                  {
                    OFFSET 1.62519 -0.234802 1.16502
                  }
                }
              }
              JOINT lMid1
              {
                OFFSET 8.24714 1.18213 3.41376
                CHANNELS 3 Zrotation Xrotation Yrotation
                JOINT lMid2
                {
                  OFFSET 3.10165 -0.590103 1.0647
                  CHANNELS 3 Zrotation Xrotation Yrotation
                  End Site
                  {
                    OFFSET 2.48547 -0.328903 0.83742
                  }
                }
              }
              JOINT lRing1
              {
                OFFSET 8.82822 0.546677 1.51678
                CHANNELS 3 Zrotation Xrotation Yrotation
                JOINT lRing2
                {
                  OFFSET 2.60934 -0.819778 -0.0198488
                  CHANNELS 3 Zrotation Xrotation Yrotation
                  End Site
                  {
                    OFFSET 2.33842 -0.294052 0.168128
                  }
                }
              }
              JOINT lPinky1
              {
                OFFSET 8.27202 -0.0477905 -0.4584
                CHANNELS 3 Zrotation Xrotation Yrotation
                JOINT lPinky2
                {
                  OFFSET 1.82734 -0.647385 -0.700984
                  CHANNELS 3 Zrotation Xrotation Yrotation
                  End Site
                  {
                    OFFSET 1.69225 -0.51767 -0.607171
                  }
                }
              }
            }
          }
        }
      }
    }
  }
  JOINT rButtock
  {
    OFFSET -8.77824 4.35084 1.2192
    CHANNELS 3 Zrotation Xrotation Yrotation
    JOINT rThigh
    {
      OFFSET 0 -1.70687 -2.19456
      CHANNELS 3 Zrotation Xrotation Yrotation
      JOINT rShin
      {
        OFFSET 0 -36.8199 0.73152
        CHANNELS 3 Zrotation Xrotation Yrotation
        JOINT rFoot
        {
          OFFSET 0.73152 -45.1104 -5.12064
          CHANNELS 3 Zrotation Xrotation Yrotation
          End Site
          {
            OFFSET -1.1221 -3.69964 12.103
          }
        }
      }
    }
  }
  JOINT lButtock
  {
    OFFSET 8.77824 4.35084 1.2192
    CHANNELS 3 Zrotation Xrotation Yrotation
    JOINT lThigh
    {
      OFFSET 0 -1.70687 -2.19456
      CHANNELS 3 Zrotation Xrotation Yrotation
      JOINT lShin
      {
        OFFSET 0 -36.8199 0.73152
        CHANNELS 3 Zrotation Xrotation Yrotation
        JOINT lFoot
        {
          OFFSET -0.73152 -45.1104 -5.12064
          CHANNELS 3 Zrotation Xrotation Yrotation
          End Site
          {
            OFFSET 1.1221 -3.69964 12.103
          }
        }
      }
    }
  }
}
MOTION
Frames:	6
Frame Time:	0.00833333
-0.130768 85.2591 4.44735 0.0 0.0 0.0 0.798877 -0.00440623 0.0224363 0.22051 -0.00586817 0.0382072 1.58805e-14 0.0 4.96962e-17 4.76773e-14 3.18055e-15 1.95679e-16 -0.0 0.0 0.0 -0.0 0.0 0.0 7.8509e-15 -3.88251e-18 1.98785e-16 1.67793e-13 1.36664e-16 1.98785e-15 2.86861e-12 -8.57358e-13 -3.18055e-15 3.28177e-11 8.59967e-13 1.52667e-13 7.74095e-11 3.5332e-15 3.49861e-13 1.33662e-10 6.36111e-15 6.05101e-13 7.74123e-11 1.59028e-15 3.40319e-13 7.73091 5.47488 0.417314 7.74073e-11 3.18055e-15 3.49861e-13 2.90554 0.965183 0.102902 7.74105e-11 3.37934e-15 3.52246e-13 10.2786 0.731801 0.0259123 7.73966e-11 7.95139e-15 3.65764e-13 2.22167 -0.733487 -0.20892 7.65482e-15 -6.21202e-18 -1.49089e-16 1.65871e-13 3.54085e-16 7.95139e-16 2.86324e-12 8.60539e-13 -2.22639e-14 3.28095e-11 -8.5619e-13 1.97194e-13 7.7392e-11 3.45109e-15 3.62583e-13 1.33674e-10 3.18055e-15 6.13052e-13 7.73873e-11 1.19271e-15 3.62583e-13 -7.73091 5.47488 -0.417314 7.73945e-11 2.68359e-15 3.56222e-13 -2.90554 0.965183 -0.102902 7.73898e-11 2.88238e-15 3.54632e-13 -10.2786 0.731801 -0.0259123 7.74032e-11 7.95139e-15 3.435e-13 -2.22167 -0.733487 0.20892 -2.03217e-16 0.0 -3.88251e-19 1.09568 -5.06524 -0.0944601 -0.000723456 3.62222 0.0100335 -0.496083 1.44298 0.085844 2.03217e-16 0.0 3.88251e-19 0.120993 -2.06714 0.0162447 0.00881433 -1.80834 0.0738157 0.484003 3.87532 -0.133679
-0.158063 84.3206 3.81509 -1.7926 5.7238 3.3787 1.26208 0.428643 -0.1506 0.587356 0.0433437 0.00313366 -4.8951 1.96128 -3.28214 8.38619 -1.07501 -5.56515 -0.0 0.0 0.0 -0.0 0.0 0.0 1.32286e-14 2.1559e-14 -6.45538e-14 19.8329 9.67857 0.967658 -4.61481 -2.18177 7.11354 0.0862407 6.52469 0.895682 2.21818e-10 -1.38929e-10 -2.78583e-11 3.82109e-10 -2.36146e-10 -5.11713e-11 2.21819e-10 -1.38928e-10 -2.78679e-11 7.73091 5.47488 0.417314 2.21816e-10 -1.38929e-10 -2.78604e-11 2.90554 0.965183 0.102902 2.21819e-10 -1.3893e-10 -2.78566e-11 10.2786 0.731801 0.0259123 2.21806e-10 -1.38926e-10 -2.78449e-11 2.22167 -0.733487 -0.20892 1.30759e-14 2.15574e-14 -6.48426e-14 -19.046 10.9004 -2.50157 4.10934 -1.84354 -6.44681 -0.00504958 1.67848 -0.235582 1.98338e-10 3.12913e-10 1.88502e-10 3.44351e-10 5.4195e-10 3.25248e-10 1.98334e-10 3.12912e-10 1.88505e-10 -7.73091 5.47488 -0.417314 1.9834e-10 3.12912e-10 1.88498e-10 -2.90554 0.965183 -0.102902 1.98335e-10 3.12912e-10 1.88496e-10 -10.2786 0.731801 -0.0259123 1.98348e-10 3.12916e-10 1.88486e-10 -2.22167 -0.733487 0.20892 -2.03217e-16 0.0 -3.88251e-19 1.53729 -5.33873 2.37138 0.0073993 6.80984 0.0779 -0.743583 -1.93642 -3.32649 2.03217e-16 0.0 3.88251e-19 1.32754 -4.17219 -4.91521 0.00491521 3.73326 -0.0383018 0.702498 -0.325449 2.40552
-0.169998 84.3049 3.73126 -1.763 5.8302 3.4357 1.74924 0.875979 -0.337129 0.975508 0.0928586 -0.0349112 -9.8294 4.01011 -6.76382 17.0319 -2.17307 -11.4532 -0.0 0.0 0.0 -0.0 0.0 0.0 1.84641e-14 4.5967e-14 -1.33099e-13 40.4517 19.8921 2.07495 -8.90034 -4.3694 14.6533 -0.0502535 13.4387 1.88507 3.7972e-10 -2.87495e-10 -6.00071e-11 6.53721e-10 -4.88509e-10 -1.1005e-10 3.79719e-10 -2.87491e-10 -6.00167e-11 7.73091 5.47488 0.417314 3.79718e-10 -2.87495e-10 -6.00115e-11 2.90554 0.965183 0.102902 3.79721e-10 -2.87497e-10 -6.00061e-11 10.2786 0.731801 0.0259123 3.7971e-10 -2.87494e-10 -5.99962e-11 2.22167 -0.733487 -0.20892 1.83588e-14 4.59663e-14 -1.33322e-13 -38.1442 22.2632 -5.44996 7.96733 -3.68646 -13.2273 0.00522694 3.51925 -0.494675 3.39789e-10 6.73805e-10 4.05015e-10 5.90705e-10 1.16701e-09 6.98862e-10 3.39786e-10 6.73805e-10 4.0502e-10 -7.73091 5.47488 -0.417314 3.3979e-10 6.73803e-10 4.05012e-10 -2.90554 0.965183 -0.102902 3.39785e-10 6.73803e-10 4.0501e-10 -10.2786 0.731801 -0.0259123 3.39798e-10 6.73806e-10 4.05001e-10 -2.22167 -0.733487 0.20892 -2.03217e-16 0.0 -3.88251e-19 2.03873 -5.60344 4.98665 0.0075152 10.1558 0.150505 -1.44119 -5.46757 -6.95865 2.03217e-16 0.0 3.88251e-19 2.21704 -6.32565 -10.167 0.0246234 9.5886 -0.158998 1.3407 -4.74911 5.11739
-0.164869 84.2915 3.66279 -1.5998 5.8225 3.4655 2.19633 1.2947 -0.496785 1.32123 0.141767 -0.0670137 -14.012 5.80648 -9.89191 24.5411 -3.10361 -16.7177 -0.0 0.0 0.0 -0.0 0.0 0.0 2.39839e-14 6.46848e-14 -1.94059e-13 58.399 29.0001 3.2723 -12.2531 -6.14261 21.4543 -0.384871 19.5543 2.83317 5.10634e-10 -4.16793e-10 -8.42747e-11 8.79004e-10 -7.0845e-10 -1.54724e-10 5.10632e-10 -4.16786e-10 -8.42843e-11 7.73091 5.47488 0.417314 5.10633e-10 -4.16793e-10 -8.42808e-11 2.90554 0.965183 0.102902 5.10635e-10 -4.16795e-10 -8.42744e-11 10.2786 0.731801 0.0259123 5.10626e-10 -4.16794e-10 -8.42662e-11 2.22167 -0.733487 -0.20892 2.39182e-14 6.46846e-14 -1.9423e-13 -53.8449 32.428 -8.74042 11.1053 -5.25111 -19.4151 0.0263949 5.03509 -0.709179 4.4023e-10 9.38732e-10 5.64781e-10 7.65705e-10 1.62584e-09 9.74519e-10 4.40228e-10 9.38733e-10 5.64789e-10 -7.73091 5.47488 -0.417314 4.40231e-10 9.3873e-10 5.6478e-10 -2.90554 0.965183 -0.102902 4.40226e-10 9.38729e-10 5.64778e-10 -10.2786 0.731801 -0.0259123 4.40238e-10 9.38731e-10 5.6477e-10 -2.22167 -0.733487 0.20892 -2.03217e-16 0.0 -3.88251e-19 2.49083 -5.85175 7.30975 0.000416349 13.185 0.217765 -2.45021 -8.56789 -10.2611 2.03217e-16 0.0 3.88251e-19 2.65837 -8.14907 -14.8927 0.0636557 14.8163 -0.271238 2.26194 -8.65297 7.56986
-0.171472 84.2813 3.60721 -1.4748 5.7914 3.4616 2.53775 1.64191 -0.589157 1.56076 0.189161 -0.0842603 -16.7879 7.04498 -12.0931 29.6364 -3.72966 -20.4028 -0.0 0.0 0.0 -0.0 0.0 0.0 3.02141e-14 6.91771e-14 -2.36057e-13 70.4532 35.3755 4.36205 -14.3703 -7.25707 26.3019 -0.741905 23.6932 3.53585 5.74081e-10 -4.97919e-10 -8.88393e-11 9.88467e-10 -8.47335e-10 -1.63888e-10 5.74078e-10 -4.97911e-10 -8.88488e-11 7.73091 5.47488 0.417314 5.7408e-10 -4.9792e-10 -8.88456e-11 2.90554 0.965183 0.102902 5.74082e-10 -4.97922e-10 -8.884e-11 10.2786 0.731801 0.0259123 5.74074e-10 -4.97921e-10 -8.88329e-11 2.22167 -0.733487 -0.20892 3.01687e-14 6.91767e-14 -2.36206e-13 -63.3891 39.838 -11.8167 13.2497 -6.36468 -24.0564 0.0405663 5.73901 -0.8093 4.38147e-10 9.63746e-10 5.82681e-10 7.62317e-10 1.66913e-09 1.00528e-09 4.38144e-10 9.63749e-10 5.8269e-10 -7.73091 5.47488 -0.417314 4.38148e-10 9.63745e-10 5.82681e-10 -2.90554 0.965183 -0.102902 4.38143e-10 9.63744e-10 5.82678e-10 -10.2786 0.731801 -0.0259123 4.38155e-10 9.63744e-10 5.82671e-10 -2.22167 -0.733487 0.20892 -2.03217e-16 0.0 -3.88251e-19 2.77533 -6.0842 8.89818 -0.00867246 15.4221 0.268261 -3.38754 -10.7153 -12.6285 2.03217e-16 0.0 3.88251e-19 2.73763 -9.35829 -18.2043 0.103433 18.4751 -0.353077 3.08898 -11.3355 9.2719
-0.154753 84.2729 3.57287 -1.3131 5.8409 3.4473 2.72193 1.89028 -0.585771 1.64342 0.23253 -0.0802723 -17.798 7.56681 -12.9649 31.5398 -4.02029 -21.8599 -0.0 0.0 0.0 -0.0 0.0 0.0 4.07626e-14 4.99707e-14 -2.6561e-13 74.7511 37.9531 4.9919 -15.2125 -7.70953 28.3553 -0.895367 25.094 3.78985 5.72652e-10 -5.38586e-10 -5.88687e-11 9.87078e-10 -9.18908e-10 -1.11762e-10 5.72651e-10 -5.3858e-10 -5.88784e-11 7.73091 5.47488 0.417314 5.72653e-10 -5.38589e-10 -5.88728e-11 2.90554 0.965183 0.102902 5.72654e-10 -5.38589e-10 -5.88714e-11 10.2786 0.731801 0.0259123 5.72647e-10 -5.38589e-10 -5.88645e-11 2.22167 -0.733487 -0.20892 4.07061e-14 4.99685e-14 -2.65789e-13 -65.7912 43.6352 -13.6037 14.344 -7.0135 -26.5043 0.0344749 5.31432 -0.748934 2.91501e-10 6.40365e-10 3.83617e-10 5.07012e-10 1.10891e-09 6.61761e-10 2.91495e-10 6.40368e-10 3.83628e-10 -7.73091 5.47488 -0.417314 2.91502e-10 6.40365e-10 3.83618e-10 -2.90554 0.965183 -0.102902 2.91498e-10 6.40363e-10 3.83615e-10 -10.2786 0.731801 -0.0259123 2.91508e-10 6.40363e-10 3.83608e-10 -2.22167 -0.733487 0.20892 -2.03217e-16 0.0 -3.88251e-19 2.80347 -6.30201 9.46019 -0.0130253 16.5523 0.293086 -3.84313 -11.6207 -13.6052 2.03217e-16 0.0 3.88251e-19 2.63648 -9.83712 -19.4812 0.121444 19.9372 -0.384579 3.42096 -12.372 9.83814
